<?xml version="1.0" standalone="no"?>
<!DOCTYPE svg PUBLIC "-//W3C//DTD SVG 20010904//EN"
 "http://www.w3.org/TR/2001/REC-SVG-20010904/DTD/svg10.dtd">
<svg version="1.0" xmlns="http://www.w3.org/2000/svg"
 width="960.000000pt" height="960.000000pt" viewBox="0 0 960.000000 960.000000"
 preserveAspectRatio="xMidYMid meet">
<metadata>
Created by potrace 1.14, written by Peter Selinger 2001-2017
</metadata>
<g transform="translate(0.000000,960.000000) scale(0.100000,-0.100000)"
fill="#000000" stroke="none">
<path d="M0 4966 c0 -1581 4 -2877 8 -2880 10 -6 49 -7 132 -6 30 1 60 1 65 0
6 -1 48 -1 95 0 47 0 96 0 110 0 14 -1 30 -2 35 -1 6 0 36 2 68 3 31 2 57 1
57 -2 0 -4 127 -4 140 1 3 1 9 1 14 0 25 -5 126 -4 131 1 3 3 24 2 45 -2 23
-4 43 -3 46 2 3 5 13 6 22 4 19 -6 51 -7 132 -6 30 1 60 1 65 0 24 -4 147 0
155 5 5 3 9 526 9 1173 0 642 0 1190 1 1218 l0 52 1151 -2 1150 -1 2 -1220 2
-1220 48 -6 c27 -3 50 -2 52 2 3 3 23 3 45 -1 22 -4 43 -3 46 2 3 5 13 6 22 4
19 -6 51 -7 132 -6 30 1 60 1 65 0 6 -1 48 -1 95 0 47 0 96 0 110 0 14 -1 30
-2 35 -1 6 0 36 2 68 3 31 2 57 1 57 -2 0 -4 127 -4 140 1 3 1 9 1 14 0 25 -5
126 -4 131 1 3 3 24 2 45 -2 23 -4 43 -3 46 2 3 5 13 6 22 4 10 -3 31 -6 47
-6 17 0 47 0 67 0 30 0 37 3 40 22 2 13 1 35 -3 51 -4 15 -4 27 1 27 5 0 5 13
0 29 -4 15 -4 34 0 42 5 7 5 20 0 29 -5 9 -5 22 0 30 5 8 6 18 3 23 -7 12 -8
106 0 113 3 3 1 19 -3 35 -5 16 -6 29 -2 29 4 0 7 27 7 60 0 33 -3 60 -7 60
-4 0 -3 14 2 30 5 19 5 30 -1 30 -6 0 -7 5 -4 10 7 11 8 99 3 178 -2 23 0 42
3 42 4 0 3 16 -1 35 -4 19 -5 35 -1 35 3 0 6 27 6 60 0 33 -3 60 -7 60 -4 0
-3 13 2 30 5 17 5 32 0 35 -5 3 -6 15 0 29 4 12 4 29 0 36 -5 8 -5 21 0 31 5
9 7 19 4 22 -8 8 -9 106 -1 113 3 3 1 19 -3 35 -5 16 -6 29 -2 29 4 0 7 27 7
60 0 33 -3 60 -7 60 -4 0 -3 14 2 30 5 19 5 30 -1 30 -6 0 -7 5 -4 10 7 11 8
99 3 178 -2 23 0 42 3 42 4 0 3 16 -1 35 -4 19 -5 35 -1 35 3 0 6 27 6 60 0
33 -3 60 -7 60 -4 0 -3 13 2 30 5 17 5 32 0 35 -5 3 -6 15 0 29 4 12 4 29 0
36 -5 8 -5 21 0 31 5 9 7 19 4 22 -8 8 -9 106 -1 113 3 3 1 19 -3 35 -5 16 -6
29 -2 29 8 0 7 109 -1 116 -3 3 -1 19 3 35 5 16 5 31 0 34 -5 3 -6 15 0 29 4
12 4 29 0 36 -5 8 -5 21 0 30 5 9 5 22 1 28 -4 7 -5 35 -1 62 4 27 3 55 -1 61
-4 7 -3 25 1 40 5 16 5 31 0 34 -5 3 -6 15 0 29 4 12 4 29 0 36 -5 8 -5 21 0
30 5 9 5 22 1 28 -4 7 -5 35 -1 62 4 27 3 55 -1 61 -4 7 -3 25 1 40 5 16 5 31
0 34 -5 3 -6 15 0 29 4 12 4 29 0 36 -5 8 -5 21 0 30 5 9 5 22 1 28 -4 7 -5
35 -1 62 4 27 3 55 -1 61 -4 7 -3 25 1 40 5 16 5 31 0 34 -5 3 -6 15 0 29 4
12 4 29 0 36 -5 8 -5 21 0 30 5 9 5 22 1 28 -4 7 -5 35 -1 62 4 27 3 55 -1 61
-4 7 -3 25 1 40 5 16 5 31 0 34 -5 3 -6 15 0 29 4 12 4 29 0 36 -5 8 -5 21 0
30 5 9 5 22 1 28 -4 7 -5 35 -1 62 4 27 3 55 -1 61 -4 7 -3 25 1 40 5 16 5 31
0 34 -5 3 -6 15 0 29 4 12 4 29 0 36 -5 8 -5 21 0 30 5 9 5 22 1 28 -4 7 -5
35 -1 62 4 27 3 55 -1 61 -4 7 -3 25 1 40 5 16 5 31 0 34 -5 3 -6 15 0 29 4
12 4 29 0 36 -5 8 -5 21 0 30 5 9 5 22 1 28 -4 7 -5 35 -1 62 4 27 3 55 -1 61
-4 7 -3 25 1 40 5 16 5 31 0 34 -5 3 -6 15 0 29 4 12 4 29 0 36 -5 8 -5 21 0
30 5 9 5 22 1 28 -4 7 -5 35 -1 62 4 27 3 55 -1 61 -4 7 -3 25 1 40 5 16 5 31
0 34 -5 3 -6 15 0 29 4 12 4 29 0 36 -5 8 -5 21 0 30 5 9 5 22 1 28 -4 7 -5
35 -1 62 4 27 3 55 -1 61 -4 7 -3 25 1 40 5 16 5 31 0 34 -5 3 -6 15 0 29 4
12 4 29 0 36 -5 8 -5 21 0 30 5 9 5 22 1 29 -5 7 -5 29 -1 49 3 21 3 49 -1 63
-3 15 -3 32 1 39 5 8 4 23 0 36 -5 12 -6 25 -3 28 4 3 -293 6 -659 6 l-666 0
0 -1091 c0 -600 -3 -1093 -5 -1095 -3 -3 -520 -6 -1151 -7 l-1146 -2 0 40 c-1
22 -1 516 -1 1098 l0 1057 -665 0 -664 0 0 -2874z"/>
<path d="M7398 7835 c-1 -1 -34 -5 -73 -9 -120 -11 -176 -19 -253 -36 -30 -7
-61 -13 -70 -15 -9 -2 -17 -4 -17 -5 0 -1 -7 -3 -15 -5 -38 -7 -182 -56 -247
-84 -101 -44 -174 -85 -282 -158 -161 -111 -254 -204 -424 -423 -102 -131
-254 -480 -273 -625 -1 -11 -3 -20 -4 -20 -1 0 -3 -11 -6 -25 -2 -14 -7 -41
-10 -60 -9 -42 -10 -51 -20 -165 -12 -140 -7 -368 11 -475 10 -63 17 -99 31
-155 8 -33 16 -65 17 -72 2 -7 6 -16 10 -19 4 -4 7 -16 7 -27 0 -53 144 -309
226 -402 44 -49 141 -149 161 -165 43 -35 133 -100 137 -100 3 0 25 -13 49
-30 35 -23 185 -100 207 -106 3 0 22 -8 42 -17 21 -10 40 -17 44 -17 3 0 20
-6 37 -14 41 -18 118 -47 137 -52 90 -23 696 -239 795 -284 266 -120 352 -172
432 -258 128 -138 174 -322 127 -509 -50 -202 -179 -349 -381 -433 -42 -18
-84 -33 -95 -35 -11 -2 -28 -7 -38 -10 -63 -20 -147 -29 -280 -29 -145 0 -220
8 -328 35 -96 24 -89 22 -187 60 -66 26 -235 120 -235 131 0 4 -5 8 -11 8 -6
0 -34 19 -63 42 -29 24 -68 54 -86 68 -18 14 -50 42 -72 62 -21 20 -38 35 -38
32 0 -2 -26 20 -57 50 -32 29 -85 78 -118 109 l-60 55 -15 -23 c-8 -13 -67
-94 -130 -180 -63 -86 -124 -169 -135 -185 -11 -15 -36 -50 -55 -76 -19 -27
-38 -53 -42 -59 -17 -21 -64 -84 -78 -105 -47 -69 -165 -226 -174 -232 -6 -5
-7 -8 -1 -8 6 0 6 -3 0 -8 -6 -4 -21 -21 -33 -38 l-21 -31 70 -63 c38 -34 86
-76 107 -92 20 -16 39 -33 42 -36 9 -12 108 -92 114 -92 3 0 14 -8 24 -17 10
-10 31 -27 46 -38 16 -11 33 -25 40 -31 54 -51 423 -274 452 -274 7 0 19 -6
26 -12 7 -7 36 -21 63 -31 114 -43 214 -76 236 -81 13 -2 35 -9 49 -14 14 -5
28 -10 33 -11 4 0 8 -1 10 -2 1 0 11 -2 22 -4 25 -4 133 -24 160 -29 20 -4 83
-12 165 -22 42 -5 273 -15 330 -15 88 0 312 15 390 25 93 13 106 15 130 21 25
5 46 9 109 20 19 3 37 8 41 10 4 2 22 7 41 10 30 5 140 37 179 52 8 4 18 7 22
7 3 1 10 4 14 9 4 4 13 7 19 7 7 0 30 8 51 17 22 9 41 17 44 18 3 0 46 20 95
44 97 47 225 127 319 199 92 71 296 278 296 301 0 5 4 11 8 13 24 10 202 322
202 354 0 5 6 21 14 35 13 25 65 174 70 202 2 7 8 32 15 57 11 39 41 181 55
265 19 112 27 439 13 565 -10 97 -33 210 -55 270 -3 8 -7 24 -9 35 -1 11 -7
29 -12 40 -4 11 -23 56 -42 100 -18 44 -35 82 -38 85 -3 3 -15 23 -26 45 -76
150 -273 351 -470 478 -57 36 -246 138 -265 142 -3 1 -27 12 -54 24 -42 18
-141 57 -296 116 -19 7 -53 20 -75 28 -22 9 -85 32 -140 52 -89 33 -449 173
-500 195 -11 5 -57 25 -103 44 -227 96 -328 189 -368 339 -16 61 -15 218 2
273 20 67 61 146 101 196 35 42 177 147 206 152 6 1 17 4 22 8 16 9 120 38
168 46 57 10 321 9 377 -1 93 -17 198 -50 302 -93 59 -25 108 -48 110 -52 2
-4 29 -20 61 -37 31 -16 57 -33 57 -37 0 -4 5 -8 11 -8 12 0 53 -30 158 -114
58 -46 75 -56 82 -45 5 8 19 30 31 49 12 19 61 99 110 177 48 78 88 146 88
152 0 6 4 11 8 11 4 0 16 15 27 33 29 50 244 397 276 445 l28 42 -49 39 c-173
137 -500 311 -730 388 -41 13 -82 27 -90 30 -20 8 -32 12 -50 16 -8 2 -41 11
-72 20 -31 10 -72 20 -90 22 -34 6 -48 8 -108 20 -39 8 -75 13 -135 20 -22 3
-58 8 -80 11 -42 6 -521 14 -527 9z"/>
</g>
</svg>
