<svg viewBox="0 0 338 150" fill="none" xmlns="http://www.w3.org/2000/svg">
<path d="M25.8 91.3H40.2V77.6H48.5V113.6H40.2V98.3H25.8V113.6H17.5V77.6H25.8V91.3Z" class="transition-all duration-200 lg:fill-black" x-bind:class="{'fill-black': !openNav, 'fill-white': openNav}"/>
<path d="M74.1 84.6H62V91.6H73.4V98.6H62V106.6H74V113.6H53.7V77.6H74.1V84.6Z" class="transition-all duration-200 lg:fill-black" x-bind:class="{'fill-black': !openNav, 'fill-white': openNav}"/>
<path d="M87.8 77.6V106.6H99V113.6H79.5V77.6H87.8Z" class="transition-all duration-200 lg:fill-black" x-bind:class="{'fill-black': !openNav, 'fill-white': openNav}"/>
<path d="M124 84.6H112V91.6H123.4V98.6H112V106.6H124V113.6H103.6V77.6H124V84.6Z" class="transition-all duration-200 lg:fill-black" x-bind:class="{'fill-black': !openNav, 'fill-white': openNav}"/>
<path d="M127.5 113.6V77.6H134.7L154.2 100.8V77.6H162.5V113.6H155.3L135.8 90.3V113.6H127.5Z" class="transition-all duration-200 lg:fill-black" x-bind:class="{'fill-black': !openNav, 'fill-white': openNav}"/>
<path d="M193.6 86.4C190.9 84 188.6 83.8 187.6 83.8C186.5 83.8 185.1 84 184.1 85C183.6 85.5 183.2 86.3 183.2 87.3C183.2 88.2 183.5 88.8 184 89.3C184.9 90.1 186.1 90.4 188.5 91.4L191.2 92.4C192.8 93 194.7 93.8 196.1 95.2C198.2 97.2 198.7 99.8 198.7 101.9C198.7 105.6 197.4 108.9 195.5 110.8C192.3 114.1 187.7 114.5 185.3 114.5C182.7 114.5 180.4 114.1 178.2 113C176.4 112.1 174.3 110.4 172.9 109.1L177.2 103.2C178.1 104.1 179.6 105.4 180.5 106C181.9 106.9 183.4 107.3 185 107.3C186.1 107.3 187.6 107.1 188.8 106.1C189.5 105.5 190.1 104.5 190.1 103.2C190.1 102 189.6 101.3 188.9 100.6C187.9 99.8 185.7 99 184.7 98.6L181.7 97.6C180 97 178.1 96.3 176.7 94.7C174.8 92.7 174.5 90.2 174.5 88.4C174.5 85.2 175.5 82.5 177.6 80.3C180.1 77.7 183.2 77 186.5 77C189 77 193 77.4 197.2 80.6L193.6 86.4Z" fill="currentColor"/>
<path d="M228 112.5C224.8 114.1 222.2 114.4 220.1 114.4C213.5 114.4 209 112.1 206 109.2C202.8 106.1 200.4 101.3 200.4 95.5C200.4 89.8 202.8 85.1 206 81.9C209.2 78.8 213.8 76.7 219.4 76.7C221.8 76.7 224.5 77.2 228 78.7V88.3C226.2 86.4 223.4 84.5 219.6 84.5C216.6 84.5 214.1 85.5 212.3 87.3C210.3 89.2 208.9 92.2 208.9 95.6C208.9 99.3 210.4 102 212 103.5C212.8 104.3 215.3 106.5 219.8 106.5C222 106.5 224.9 105.9 228.1 102.8V112.5H228Z" fill="currentColor"/>
<path d="M262.5 82C265.9 85.3 268.1 90 268.1 95.6C268.1 100.4 266.4 105.3 262.5 109.1C259.2 112.3 254.6 114.4 248.6 114.4C241.8 114.4 237.3 111.7 234.6 109.1C231.1 105.9 229 101 229 95.7C229 90.5 231.3 85.3 234.6 82C237 79.6 241.5 76.7 248.7 76.7C254.2 76.8 258.9 78.5 262.5 82ZM240.6 87.5C239 89 237.4 91.7 237.4 95.7C237.4 99 238.5 101.6 240.7 103.8C243 106 245.6 106.8 248.4 106.8C252.1 106.8 254.7 105.5 256.4 103.7C257.8 102.4 259.5 99.8 259.5 95.7C259.5 92 258 89.2 256.4 87.6C254.6 85.9 251.8 84.5 248.5 84.5C245.4 84.4 242.6 85.6 240.6 87.5Z" fill="currentColor"/>
<path d="M284.3 84.6V113.6H276V84.6H268.2V77.6H292.2V84.6H284.3Z" fill="currentColor"/>
<path d="M311.8 84.6V113.6H303.5V84.6H295.7V77.6H319.7V84.6H311.8Z" fill="currentColor"/>
<path d="M45.5105 130.294V133.308C44.0499 132.067 42.498 131.447 40.8548 131.447C39.1204 131.447 37.5685 132.067 36.3818 133.308C35.195 134.548 34.556 136.055 34.556 137.828C34.556 139.6 35.195 141.018 36.3818 142.259C37.5685 143.5 39.1204 144.031 40.8548 144.031C41.7677 144.031 42.5893 143.854 43.2283 143.588C43.5935 143.411 43.9586 143.234 44.3238 142.968C44.6889 142.702 45.1453 142.436 45.5105 142.082V145.095C44.0499 145.893 42.498 146.336 40.8548 146.336C38.3901 146.336 36.2905 145.538 34.556 143.854C32.8216 142.17 32 140.132 32 137.739C32 135.612 32.7303 133.751 34.1909 132.067C36.0166 130.029 38.2988 128.965 41.1287 128.965C42.5893 129.054 44.0499 129.408 45.5105 130.294Z" class="transition-all duration-200 lg:fill-black" x-bind:class="{'fill-black': !openNav, 'fill-white': openNav}"/>
<path d="M51.3007 128.965V139.333C51.3007 140.788 51.5902 141.879 52.0727 142.607C52.8448 143.607 53.9063 144.062 55.2573 144.062C56.6084 144.062 57.7664 143.607 58.442 142.607C58.9245 141.97 59.214 140.879 59.214 139.333V128.965H61.9161V139.969C61.9161 141.788 61.3371 143.244 60.0825 144.426C58.7315 145.699 57.0909 146.336 55.1608 146.336C53.2308 146.336 51.5902 145.699 50.2392 144.426C49.0811 143.244 48.4056 141.788 48.4056 139.969V128.965H51.3007V128.965Z" class="transition-all duration-200 lg:fill-black" x-bind:class="{'fill-black': !openNav, 'fill-white': openNav}"/>
<path d="M75.8652 131.712L73.8474 132.953C73.4965 132.333 73.1456 131.89 72.7946 131.624C72.4437 131.358 72.0051 131.269 71.391 131.269C70.6891 131.269 70.1627 131.447 69.6364 131.89C69.1977 132.244 68.9345 132.776 68.9345 133.396C68.9345 134.194 69.5486 134.903 70.7769 135.346L72.4437 136.055C73.7597 136.587 74.7247 137.296 75.4266 138.093C76.0407 138.891 76.3916 139.866 76.3916 141.018C76.3916 142.525 75.8652 143.854 74.9002 144.829C73.8474 145.804 72.6192 146.336 71.1278 146.336C69.7241 146.336 68.4959 145.893 67.5308 145.006C66.6535 144.12 66.0394 142.968 65.7762 141.373L68.3204 140.841C68.4081 141.816 68.6713 142.525 68.9345 142.879C69.4609 143.588 70.1627 143.943 71.2155 143.943C72.0051 143.943 72.6192 143.677 73.1456 143.145C73.672 142.613 73.9351 141.993 73.9351 141.107C73.9351 140.752 73.8474 140.486 73.7597 140.221C73.672 139.955 73.4965 139.689 73.321 139.511C73.1456 139.246 72.8824 139.068 72.6192 138.891C72.356 138.714 72.0051 138.537 71.5664 138.359L69.9873 137.65C67.7063 136.675 66.5658 135.257 66.5658 133.396C66.5658 132.156 67.0044 131.092 67.9695 130.206C68.9345 129.32 70.075 128.965 71.4787 128.965C73.321 128.965 74.8124 129.851 75.8652 131.712Z" class="transition-all duration-200 lg:fill-black" x-bind:class="{'fill-black': !openNav, 'fill-white': openNav}"/>
<path d="M84.8755 131.447V146.336H82.2909V131.447H78.3217V128.965H88.9371V131.447H84.8755Z" class="transition-all duration-200 lg:fill-black" x-bind:class="{'fill-black': !openNav, 'fill-white': openNav}"/>
<path d="M89.9021 137.606C89.9021 135.201 90.8328 133.241 92.6013 131.548C94.3697 129.856 96.6035 128.965 99.1165 128.965C101.629 128.965 103.77 129.856 105.539 131.548C107.307 133.241 108.238 135.29 108.238 137.695C108.238 140.1 107.307 142.149 105.539 143.841C103.77 145.534 101.536 146.336 99.0234 146.336C96.7896 146.336 94.742 145.623 92.8805 144.109C90.9259 142.416 89.9021 140.278 89.9021 137.606ZM92.6013 137.606C92.6013 139.477 93.2528 140.991 94.5558 142.149C95.8589 143.307 97.3481 143.931 99.0234 143.931C100.885 143.931 102.374 143.307 103.677 142.06C104.98 140.813 105.539 139.298 105.539 137.517C105.539 135.735 104.887 134.221 103.677 132.974C102.467 131.727 100.885 131.103 99.0234 131.103C97.1619 131.103 95.6727 131.727 94.3697 132.974C93.2528 134.399 92.6013 135.824 92.6013 137.606Z" class="transition-all duration-200 lg:fill-black" x-bind:class="{'fill-black': !openNav, 'fill-white': openNav}"/>
<path d="M111.133 146.569L114.659 128L120.389 141.355L126.295 128L129.469 146.569H126.912L125.325 136.141L120.389 147.301L115.629 136.05L113.866 146.477H111.133V146.569Z" class="transition-all duration-200 lg:fill-black" x-bind:class="{'fill-black': !openNav, 'fill-white': openNav}"/>
<path d="M141.049 146.244V128.965H143.703C144.935 128.965 145.883 129.057 146.546 129.241C147.304 129.425 147.873 129.7 148.347 130.16C148.821 130.619 149.2 131.171 149.579 131.814C149.864 132.458 150.053 133.193 150.053 133.836C150.053 135.123 149.579 136.134 148.537 136.961C149.484 137.237 150.243 137.788 150.811 138.615C151.38 139.351 151.664 140.27 151.664 141.373C151.664 142.751 151.19 143.854 150.148 144.773C149.579 145.325 148.916 145.784 148.157 145.968C147.304 146.152 146.357 146.336 145.124 146.336H141.049V146.244ZM143.703 136.318H144.556C145.598 136.318 146.262 136.134 146.736 135.674C147.21 135.215 147.399 134.571 147.399 133.744C147.399 132.917 147.115 132.274 146.641 131.906C146.167 131.447 145.504 131.263 144.556 131.263H143.608V136.318H143.703ZM143.703 143.762H145.409C146.641 143.762 147.494 143.487 148.063 143.027C148.631 142.567 149.01 141.924 149.01 141.097C149.01 140.362 148.726 139.718 148.157 139.167C147.589 138.707 146.546 138.432 145.124 138.432H143.798V143.762H143.703Z" class="transition-all duration-200 lg:fill-black" x-bind:class="{'fill-black': !openNav, 'fill-white': openNav}"/>
<path d="M157.248 128.965V139.333C157.248 140.788 157.517 141.879 157.965 142.607C158.682 143.607 159.667 144.062 160.922 144.062C162.176 144.062 163.252 143.607 163.879 142.607C164.327 141.97 164.596 140.879 164.596 139.333V128.965H167.105V139.969C167.105 141.788 166.567 143.244 165.402 144.426C164.148 145.699 162.624 146.336 160.832 146.336C159.04 146.336 157.517 145.699 156.262 144.426C155.187 143.244 154.559 141.788 154.559 139.969V128.965H157.248V128.965Z" class="transition-all duration-200 lg:fill-black" x-bind:class="{'fill-black': !openNav, 'fill-white': openNav}"/>
<path d="M174.825 128.965V146.336H171.93V128.965H174.825Z" class="transition-all duration-200 lg:fill-black" x-bind:class="{'fill-black': !openNav, 'fill-white': openNav}"/>
<path d="M181.351 128.965V143.854H186.406V146.336H178.685V129.057H181.351V128.965Z" class="transition-all duration-200 lg:fill-black" x-bind:class="{'fill-black': !openNav, 'fill-white': openNav}"/>
<path d="M189.301 146.244V128.965H193.002C194.76 128.965 196.148 129.149 197.166 129.516C198.277 129.884 199.202 130.436 200.128 131.263C201.886 132.917 202.811 135.031 202.811 137.696C202.811 140.362 201.886 142.476 200.035 144.13C199.11 144.957 198.092 145.508 197.074 145.876C196.148 146.244 194.76 146.336 193.002 146.336H189.301V146.244ZM191.892 143.762H193.095C194.298 143.762 195.223 143.67 196.056 143.395C196.796 143.119 197.537 142.751 198.184 142.108C199.48 140.913 200.128 139.443 200.128 137.513C200.128 135.582 199.48 134.112 198.184 132.917C197.074 131.906 195.316 131.355 193.095 131.355H191.892V143.762Z" class="transition-all duration-200 lg:fill-black" x-bind:class="{'fill-black': !openNav, 'fill-white': openNav}"/>
<path d="M215.357 131.367H209.01V135.525H215.106V138.02H209.01V143.841H215.357V146.336H206.671V128.965H215.357V131.367Z" class="transition-all duration-200 lg:fill-black" x-bind:class="{'fill-black': !openNav, 'fill-white': openNav}"/>
<path d="M225.246 138.944L230.797 146.336H227.447L222.279 139.221H221.897V146.336H219.217V128.965H222.375C224.768 128.965 226.49 129.427 227.543 130.259C228.692 131.183 229.266 132.476 229.266 134.047C229.266 135.248 228.883 136.357 228.213 137.188C227.447 138.112 226.49 138.667 225.246 138.944ZM221.897 136.911H222.758C225.342 136.911 226.586 135.987 226.586 134.047C226.586 132.291 225.342 131.367 222.854 131.367H221.897V136.911Z" class="transition-all duration-200 lg:fill-black" x-bind:class="{'fill-black': !openNav, 'fill-white': openNav}"/>
<path d="M243.733 131.712L241.532 132.953C241.149 132.333 240.767 131.89 240.384 131.624C240.001 131.358 239.522 131.269 238.852 131.269C238.087 131.269 237.513 131.447 236.938 131.89C236.46 132.244 236.173 132.776 236.173 133.396C236.173 134.194 236.843 134.903 238.183 135.346L240.001 136.055C241.437 136.587 242.489 137.296 243.255 138.093C243.925 138.891 244.308 139.866 244.308 141.018C244.308 142.525 243.733 143.854 242.681 144.829C241.532 145.804 240.192 146.336 238.565 146.336C237.034 146.336 235.694 145.893 234.641 145.006C233.589 144.12 233.014 142.968 232.727 141.373L235.503 140.841C235.598 141.816 235.886 142.525 236.173 142.879C236.747 143.588 237.513 143.943 238.661 143.943C239.522 143.943 240.192 143.677 240.767 143.145C241.341 142.613 241.628 141.993 241.628 141.107C241.628 140.752 241.532 140.486 241.437 140.221C241.341 139.955 241.149 139.689 240.958 139.511C240.767 139.246 240.479 139.068 240.192 138.891C239.905 138.714 239.522 138.537 239.044 138.359L237.321 137.65C234.833 136.675 233.589 135.257 233.589 133.396C233.589 132.156 234.067 131.092 235.12 130.206C236.173 129.32 237.417 128.965 238.948 128.965C240.958 128.965 242.585 129.851 243.733 131.712Z" class="transition-all duration-200 lg:fill-black" x-bind:class="{'fill-black': !openNav, 'fill-white': openNav}"/>
<path d="M247.953 143.441L250.098 144.285L246.97 150.196L245.273 149.52L247.953 143.441Z" class="transition-all duration-200 lg:fill-black" x-bind:class="{'fill-black': !openNav, 'fill-white': openNav}"/>
<path d="M264.573 128.965V146.336H261.678V128.965H264.573Z" class="transition-all duration-200 lg:fill-black" x-bind:class="{'fill-black': !openNav, 'fill-white': openNav}"/>
<path d="M269.399 146.213V128L281.418 141.048V129.178H283.874V147.301L271.855 134.343V146.304H269.399V146.213Z" class="transition-all duration-200 lg:fill-black" x-bind:class="{'fill-black': !openNav, 'fill-white': openNav}"/>
<path d="M301.245 130.294V133.308C299.784 132.067 298.232 131.447 296.589 131.447C294.855 131.447 293.303 132.067 292.116 133.308C290.929 134.548 290.29 136.055 290.29 137.828C290.29 139.6 290.929 141.018 292.116 142.259C293.303 143.5 294.855 144.031 296.589 144.031C297.502 144.031 298.324 143.854 298.963 143.588C299.328 143.411 299.693 143.234 300.058 142.968C300.423 142.702 300.88 142.436 301.245 142.082V145.095C299.784 145.893 298.232 146.336 296.589 146.336C294.124 146.336 292.025 145.538 290.29 143.854C288.556 142.17 287.734 140.132 287.734 137.739C287.734 135.612 288.465 133.751 289.925 132.067C291.751 130.029 294.033 128.965 296.863 128.965C298.324 129.054 299.784 129.408 301.245 130.294Z" class="transition-all duration-200 lg:fill-black" x-bind:class="{'fill-black': !openNav, 'fill-white': openNav}"/>
<path d="M305.105 144.888C305.105 144.462 305.275 144.122 305.531 143.866C305.786 143.611 306.127 143.441 306.552 143.441C306.978 143.441 307.319 143.611 307.574 143.866C307.83 144.122 308 144.462 308 144.888C308 145.314 307.83 145.654 307.574 145.91C307.319 146.165 306.978 146.336 306.552 146.336C306.127 146.336 305.786 146.165 305.531 145.91C305.19 145.654 305.105 145.314 305.105 144.888Z" class="transition-all duration-200 lg:fill-black" x-bind:class="{'fill-black': !openNav, 'fill-white': openNav}"/>
<path d="M220.2 22.3H102.9L80.5 5.3L0 67.3H6.4L10.5 64.1462L80.5 10.3L155.4 67.3H161.9L108.2 26.3H220.2V22.3Z" class="transition-all duration-200 lg:fill-black" x-bind:class="{'fill-black': !openNav, 'fill-white': openNav}"/>
<path d="M331.3 67.3L256.5 5.2L238.1 20.6L235.5 17.6L256.5 0L337.8 67.3H331.3Z" class="transition-all duration-200 lg:fill-black" x-bind:class="{'fill-black': !openNav, 'fill-white': openNav}"/>
<path d="M291.3 67.3L231.5 17.6L173.5 67.3H166.7L231.5 12.4L297.8 67.3H291.3Z" fill="currentColor"/>
<path d="M14 138H26V139H14V138Z" class="transition-all duration-200 lg:fill-black" x-bind:class="{'fill-black': !openNav, 'fill-white': openNav}"/>
<path d="M311 138H323V139H311V138Z" class="transition-all duration-200 lg:fill-black" x-bind:class="{'fill-black': !openNav, 'fill-white': openNav}"/>
</svg>
