<svg xmlns="http://www.w3.org/2000/svg" viewBox="0 0 337.8 150"><path class="transition-all duration-200 lg:fill-black" x-bind:class="{'fill-black': !openNav, 'fill-white': openNav}" d="M25.8 91.3h14.4V77.6h8.3v36h-8.3V98.3H25.8v15.3h-8.3v-36h8.3v13.7zM74.1 84.6H62v7h11.4v7H62v8h12v7H53.7v-36h20.4v7zM87.8 77.6v29H99v7H79.5v-36h8.3zM124 84.6h-12v7h11.4v7H112v8h12v7h-20.4v-36H124v7zM127.5 113.6v-36h7.2l19.5 23.2V77.6h8.3v36h-7.2l-19.5-23.3v23.3h-8.3z"/><path fill="currentColor" d="M193.6 86.4c-2.7-2.4-5-2.6-6-2.6-1.1 0-2.5.2-3.5 1.2-.5.5-.9 1.3-.9 2.3 0 .9.3 1.5.8 2 .9.8 2.1 1.1 4.5 2.1l2.7 1c1.6.6 3.5 1.4 4.9 2.8 2.1 2 2.6 4.6 2.6 6.7 0 3.7-1.3 7-3.2 8.9-3.2 3.3-7.8 3.7-10.2 3.7-2.6 0-4.9-.4-7.1-1.5-1.8-.9-3.9-2.6-5.3-3.9l4.3-5.9c.9.9 2.4 2.2 3.3 2.8 1.4.9 2.9 1.3 4.5 1.3 1.1 0 2.6-.2 3.8-1.2.7-.6 1.3-1.6 1.3-2.9 0-1.2-.5-1.9-1.2-2.6-1-.8-3.2-1.6-4.2-2l-3-1c-1.7-.6-3.6-1.3-5-2.9-1.9-2-2.2-4.5-2.2-6.3 0-3.2 1-5.9 3.1-8.1 2.5-2.6 5.6-3.3 8.9-3.3 2.5 0 6.5.4 10.7 3.6l-3.6 5.8zM228 112.5c-3.2 1.6-5.8 1.9-7.9 1.9-6.6 0-11.1-2.3-14.1-5.2-3.2-3.1-5.6-7.9-5.6-13.7 0-5.7 2.4-10.4 5.6-13.6 3.2-3.1 7.8-5.2 13.4-5.2 2.4 0 5.1.5 8.6 2v9.6c-1.8-1.9-4.6-3.8-8.4-3.8-3 0-5.5 1-7.3 2.8-2 1.9-3.4 4.9-3.4 8.3 0 3.7 1.5 6.4 3.1 7.9.8.8 3.3 3 7.8 3 2.2 0 5.1-.6 8.3-3.7v9.7zM262.5 82c3.4 3.3 5.6 8 5.6 13.6 0 4.8-1.7 9.7-5.6 13.5-3.3 3.2-7.9 5.3-13.9 5.3-6.8 0-11.3-2.7-14-5.3-3.5-3.2-5.6-8.1-5.6-13.4 0-5.2 2.3-10.4 5.6-13.7 2.4-2.4 6.9-5.3 14.1-5.3 5.5.1 10.2 1.8 13.8 5.3zm-21.9 5.5c-1.6 1.5-3.2 4.2-3.2 8.2 0 3.3 1.1 5.9 3.3 8.1 2.3 2.2 4.9 3 7.7 3 3.7 0 6.3-1.3 8-3.1 1.4-1.3 3.1-3.9 3.1-8 0-3.7-1.5-6.5-3.1-8.1-1.8-1.7-4.6-3.1-7.9-3.1-3.1-.1-5.9 1.1-7.9 3zM284.3 84.6v29H276v-29h-7.8v-7h24v7h-7.9zM311.8 84.6v29h-8.3v-29h-7.8v-7h24v7h-7.9z"/><path class="transition-all duration-200 lg:fill-black" x-bind:class="{'fill-black': !openNav, 'fill-white': openNav}"  d="M30.7 127.8v3.4c-1.6-1.4-3.3-2.1-5.1-2.1-1.9 0-3.6.7-4.9 2.1-1.3 1.4-2 3.1-2 5.1 0 2 .7 3.6 2 5s3 2 4.9 2c1 0 1.9-.2 2.6-.5.4-.2.8-.4 1.2-.7.4-.3.9-.6 1.3-1v3.4c-1.6.9-3.3 1.4-5.1 1.4-2.7 0-5-.9-6.9-2.8-1.9-1.9-2.8-4.2-2.8-6.9 0-2.4.8-4.5 2.4-6.4 2-2.3 4.5-3.5 7.6-3.5 1.6.1 3.2.5 4.8 1.5zM37.5 126.7v11.4c0 1.6.3 2.8.8 3.6.8 1.1 1.9 1.6 3.3 1.6s2.6-.5 3.3-1.6c.5-.7.8-1.9.8-3.6v-11.4h2.8v12.1c0 2-.6 3.6-1.9 4.9-1.4 1.4-3.1 2.1-5.1 2.1s-3.7-.7-5.1-2.1c-1.2-1.3-1.9-2.9-1.9-4.9v-12.1h3zM64.2 129.5l-2.3 1.4c-.4-.7-.8-1.2-1.2-1.5-.4-.3-.9-.4-1.6-.4-.8 0-1.4.2-2 .7-.5.4-.8 1-.8 1.7 0 .9.7 1.7 2.1 2.2l1.9.8c1.5.6 2.6 1.4 3.4 2.3.7.9 1.1 2 1.1 3.3 0 1.7-.6 3.2-1.7 4.3-1.2 1.1-2.6 1.7-4.3 1.7-1.6 0-3-.5-4.1-1.5-1-1-1.7-2.3-2-4.1l2.9-.6c.1 1.1.4 1.9.7 2.3.6.8 1.4 1.2 2.6 1.2.9 0 1.6-.3 2.2-.9.6-.6.9-1.3.9-2.3 0-.4-.1-.7-.2-1-.1-.3-.3-.6-.5-.8-.2-.3-.5-.5-.8-.7s-.7-.4-1.2-.6l-1.8-.8c-2.6-1.1-3.9-2.7-3.9-4.8 0-1.4.5-2.6 1.6-3.6s2.4-1.4 4-1.4c2.1 0 3.8 1 5 3.1zM74 129.4v16.2h-2.8v-16.2h-4.3v-2.7h11.5v2.7H74zM79.7 136.1c0-2.7 1-4.9 2.9-6.8 1.9-1.9 4.3-2.9 7-2.9s5 1 6.9 2.9c1.9 1.9 2.9 4.2 2.9 6.9s-1 5-2.9 6.9c-1.9 1.9-4.3 2.8-7 2.8-2.4 0-4.6-.8-6.6-2.5-2.1-1.9-3.2-4.3-3.2-7.3zm2.9 0c0 2.1.7 3.8 2.1 5.1 1.4 1.3 3 2 4.8 2 2 0 3.6-.7 5-2.1 1.4-1.4 2-3.1 2-5.1 0-2-.7-3.7-2-5.1-1.3-1.4-3-2.1-5-2.1s-3.6.7-5 2.1c-1.2 1.6-1.9 3.2-1.9 5.2zM102.7 145.6l4-20.3 6.5 14.6 6.7-14.6 3.6 20.3h-2.9l-1.8-11.4-5.6 12.2-5.4-12.3-2 11.4h-3.1zM135.9 145.6v-18.8h2.8c1.3 0 2.3.1 3 .3.8.2 1.4.5 1.9 1s.9 1.1 1.3 1.8c.3.7.5 1.5.5 2.2 0 1.4-.5 2.5-1.6 3.4 1 .3 1.8.9 2.4 1.8.6.8.9 1.8.9 3 0 1.5-.5 2.7-1.6 3.7-.6.6-1.3 1.1-2.1 1.3-.9.2-1.9.4-3.2.4h-4.3zm2.8-10.8h.9c1.1 0 1.8-.2 2.3-.7.5-.5.7-1.2.7-2.1 0-.9-.3-1.6-.8-2-.5-.5-1.2-.7-2.2-.7h-1v5.5zm0 8.1h1.8c1.3 0 2.2-.3 2.8-.8.6-.5 1-1.2 1-2.1 0-.8-.3-1.5-.9-2.1-.6-.5-1.7-.8-3.2-.8h-1.4v5.8zM153.9 126.7v11.4c0 1.6.3 2.8.8 3.6.8 1.1 1.9 1.6 3.3 1.6s2.6-.5 3.3-1.6c.5-.7.8-1.9.8-3.6v-11.4h2.8v12.1c0 2-.6 3.6-1.9 4.9-1.4 1.4-3.1 2.1-5.1 2.1s-3.7-.7-5.1-2.1c-1.2-1.3-1.9-2.9-1.9-4.9v-12.1h3zM172.7 126.7v18.8h-2.8v-18.8h2.8zM180.5 126.7v16.2h5.5v2.7h-8.4v-18.8h2.9zM189.1 145.6v-18.8h4c1.9 0 3.4.2 4.5.6 1.2.4 2.2 1 3.2 1.9 1.9 1.8 2.9 4.1 2.9 7 0 2.9-1 5.2-3 7-1 .9-2.1 1.5-3.2 1.9-1 .4-2.5.5-4.4.5h-4zm2.8-2.7h1.3c1.3 0 2.3-.1 3.2-.4.8-.3 1.6-.7 2.3-1.4 1.4-1.3 2.1-2.9 2.1-5s-.7-3.7-2.1-5c-1.2-1.1-3.1-1.7-5.5-1.7h-1.3v13.5zM218 129.4h-7.6v4.5h7.3v2.7h-7.3v6.3h7.6v2.7h-10.4v-18.8H218v2.6zM228.5 137.6l5.8 8h-3.5l-5.4-7.7h-.4v7.7h-2.8v-18.8h3.3c2.5 0 4.3.5 5.4 1.4 1.2 1 1.8 2.4 1.8 4.1 0 1.3-.4 2.5-1.1 3.4-.8 1-1.8 1.6-3.1 1.9zm-3.5-2.2h.9c2.7 0 4-1 4-3.1 0-1.9-1.3-2.9-3.9-2.9h-1v6zM248.2 129.5l-2.3 1.4c-.4-.7-.8-1.2-1.2-1.5-.4-.3-.9-.4-1.6-.4-.8 0-1.4.2-2 .7-.5.4-.8 1-.8 1.7 0 .9.7 1.7 2.1 2.2l1.9.8c1.5.6 2.6 1.4 3.4 2.3.7.9 1.1 2 1.1 3.3 0 1.7-.6 3.2-1.7 4.3-1.2 1.1-2.6 1.7-4.3 1.7-1.6 0-3-.5-4.1-1.5-1.1-1-1.7-2.3-2-4.1l2.9-.6c.1 1.1.4 1.9.7 2.3.6.8 1.4 1.2 2.6 1.2.9 0 1.6-.3 2.2-.9.6-.6.9-1.3.9-2.3 0-.4-.1-.7-.2-1-.1-.3-.3-.6-.5-.8-.2-.3-.5-.5-.8-.7s-.7-.4-1.2-.6l-1.8-.8c-2.6-1.1-3.9-2.7-3.9-4.8 0-1.4.5-2.6 1.6-3.6s2.4-1.4 4-1.4c2.1 0 3.8 1 5 3.1zM253.7 142.1l2.4 1-3.5 7-1.9-.8 3-7.2zM271.5 126.7v18.8h-2.8v-18.8h2.8zM276.4 145.6v-20.1l13.7 14.4v-13.1h2.8v20l-13.7-14.3v13.2h-2.8zM312 127.8v3.4c-1.6-1.4-3.3-2.1-5.1-2.1-1.9 0-3.6.7-4.9 2.1-1.3 1.4-2 3.1-2 5.1 0 2 .7 3.6 2 5s3 2 4.9 2c1 0 1.9-.2 2.6-.5.4-.2.8-.4 1.2-.7.4-.3.9-.6 1.3-1v3.4c-1.6.9-3.3 1.4-5.1 1.4-2.7 0-5-.9-6.9-2.8-1.9-1.9-2.8-4.2-2.8-6.9 0-2.4.8-4.5 2.4-6.4 2-2.3 4.5-3.5 7.6-3.5 1.6.1 3.2.5 4.8 1.5zM315.9 144.2c0-.5.2-.9.5-1.2.3-.3.7-.5 1.2-.5s.9.2 1.2.5c.3.3.5.7.5 1.2s-.2.9-.5 1.2c-.3.3-.7.5-1.2.5s-.9-.2-1.2-.5c-.4-.3-.5-.7-.5-1.2zM220.2 22.3H102.9l-22.4-17L0 67.3h6.4l74.1-57 74.9 57h6.5l-53.7-41h112zM331.3 67.3L256.5 5.2l-18.4 15.4-2.6-3 21-17.6 81.3 67.3z"/><path fill="currentColor" d="M291.3 67.3l-59.8-49.7-58 49.7h-6.8l64.8-54.9 66.3 54.9z"/></svg>